name analog
datacolumns 19
datarows 54
range 0.44100000000000006 0.4675000000000001
endheader
time	ground_force_vx	ground_force_vy	ground_force_vz	ground_force_px	ground_force_py	ground_force_pz	l_ground_force_vx	l_ground_force_vy	l_ground_force_vz	l_ground_force_px	l_ground_force_py	l_ground_force_pz	ground_torque_x	ground_torque_y	ground_torque_z	l_ground_torque_x	l_ground_torque_y	l_ground_torque_z
0.44100000000000006	-0.0	-0.0	-0.0	10.428821563720703	29.55801010131836	-238.94366455078125	12.888157844543455	-33.71390151977539	-258.5697326660156	-0.0	-0.0	-0.0	-0.0	-0.0	-0.0	71650.203125	-27119.07421875	4980.259765625
0.44150000000000006	-0.0	-0.0	-0.0	11.59462070465088	29.68952369689941	-240.3821563720703	12.849860191345217	-33.94181823730469	-259.36767578125	-0.0	-0.0	-0.0	-0.0	-0.0	-0.0	71917.28125	-27263.40234375	5073.0693359375
0.44200000000000006	-0.0	-0.0	-0.0	11.904932022094728	29.55139541625977	-239.0658264160156	13.077911376953123	-34.01764678955078	-260.0186767578125	-0.0	-0.0	-0.0	-0.0	-0.0	-0.0	71930.875	-27025.673828125	4980.1396484375
0.44250000000000006	-0.0	-0.0	-0.0	12.479817390441896	30.423564910888672	-241.205078125	12.913673400878906	-34.104915618896484	-258.9205627441406	-0.0	-0.0	-0.0	-0.0	-0.0	-0.0	71765.2890625	-26884.96875	5123.93896484375
0.44300000000000006	-0.0	-0.0	-0.0	12.192123413085938	30.457836151123047	-240.9275360107422	12.68564224243164	-33.99112701416016	-258.8714904785156	-0.0	-0.0	-0.0	-0.0	-0.0	-0.0	71872.0546875	-27005.83203125	5064.455078125
0.44350000000000006	-0.0	-0.0	-0.0	12.221839904785156	30.51756858825684	-239.9656524658203	12.127946853637695	-34.04094696044922	-258.7702331542969	-0.0	-0.0	-0.0	-0.0	-0.0	-0.0	71695.53125	-26969.91796875	4979.384765625
0.44400000000000006	-0.0	-0.0	-0.0	12.02247714996338	30.26500129699707	-239.7677154541016	12.494900703430176	-34.33174133300781	-259.5680236816406	-0.0	-0.0	-0.0	-0.0	-0.0	-0.0	71844.171875	-26974.580078125	4890.6572265625
0.44450000000000006	-0.0	-0.0	-0.0	11.97918701171875	30.443378448486328	-238.481201171875	11.96394157409668	-34.49636459350586	-259.419677734375	-0.0	-0.0	-0.0	-0.0	-0.0	-0.0	71740.1015625	-27111.3984375	4915.4287109375
0.44500000000000006	-0.0	-0.0	-0.0	12.07154369354248	30.240232467651367	-241.37673950195312	12.050833702087402	-34.973365783691406	-259.6214904785156	-0.0	-0.0	-0.0	-0.0	-0.0	-0.0	71955.890625	-26957.677734375	4902.826171875
0.44550000000000006	-0.0	-0.0	-0.0	11.800911903381348	30.429845809936523	-242.63461303710935	11.835824012756348	-34.949790954589844	-261.31219482421875	-0.0	-0.0	-0.0	-0.0	-0.0	-0.0	72098.5	-26802.2109375	4999.4404296875
0.44600000000000006	-0.0	-0.0	-0.0	11.99305248260498	30.71331596374512	-243.84793090820312	11.87584114074707	-34.610748291015625	-259.2284851074219	-0.0	-0.0	-0.0	-0.0	-0.0	-0.0	72021.0390625	-26868.0078125	5033.92529296875
0.44650000000000006	-0.0	-0.0	-0.0	11.67474365234375	31.145164489746094	-245.56637573242188	12.27910614013672	-34.839088439941406	-259.36187744140625	-0.0	-0.0	-0.0	-0.0	-0.0	-0.0	71759.015625	-26877.322265625	5220.75439453125
0.44700000000000006	-0.0	-0.0	-0.0	11.188748359680176	31.360689163208008	-245.71295166015625	12.19423770904541	-34.710426330566406	-260.7574157714844	-0.0	-0.0	-0.0	-0.0	-0.0	-0.0	71931.65625	-26515.4609375	5103.40185546875
0.44750000000000006	-0.0	-0.0	-0.0	10.552227973937988	31.348535537719727	-245.81602478027344	11.761768341064451	-34.82460403442383	-260.1777038574219	-0.0	-0.0	-0.0	-0.0	-0.0	-0.0	72080.859375	-26566.31640625	5073.537109375
0.44800000000000006	-0.0	-0.0	-0.0	10.106252670288086	31.641292572021484	-245.40997314453125	11.558451652526855	-34.73636245727539	-259.35870361328125	-0.0	-0.0	-0.0	-0.0	-0.0	-0.0	72262.09375	-26519.58984375	4939.40234375
0.44850000000000007	-0.0	-0.0	-0.0	10.029739379882812	31.450653076171875	-247.32699584960935	11.041967391967772	-34.736419677734375	-260.775390625	-0.0	-0.0	-0.0	-0.0	-0.0	-0.0	72216.453125	-26465.689453125	4851.7294921875
0.44900000000000007	-0.0	-0.0	-0.0	9.97840690612793	31.959827423095703	-247.73260498046875	10.734004974365234	-34.91313171386719	-261.3485412597656	-0.0	-0.0	-0.0	-0.0	-0.0	-0.0	72319.71875	-26441.66015625	4708.54443359375
0.44950000000000007	-0.0	-0.0	-0.0	9.9280366897583	31.97216796875	-251.75894165039065	10.504076957702637	-35.48908996582031	-260.6346130371094	-0.0	-0.0	-0.0	-0.0	-0.0	-0.0	72443.890625	-26430.95703125	4584.27685546875
0.45000000000000007	-0.0	-0.0	-0.0	9.78742790222168	32.18976593017578	-252.47604370117188	10.343072891235352	-34.87060546875	-261.5796203613281	-0.0	-0.0	-0.0	-0.0	-0.0	-0.0	72461.6796875	-26381.638671875	4537.09765625
0.45050000000000007	-0.0	-0.0	-0.0	9.43050765991211	32.65929412841797	-254.59603881835935	9.916516304016112	-35.0184326171875	-262.3918762207031	-0.0	-0.0	-0.0	-0.0	-0.0	-0.0	72761.3359375	-26540.3984375	4418.1005859375
0.45100000000000007	-0.0	-0.0	-0.0	9.010261535644531	33.04153060913086	-255.71295166015625	9.456254959106444	-35.35501480102539	-263.9586181640625	-0.0	-0.0	-0.0	-0.0	-0.0	-0.0	73164.453125	-26675.4921875	4275.08984375
0.45150000000000007	-0.0	-0.0	-0.0	8.630595207214355	33.012454986572266	-255.94049072265625	9.101529121398926	-35.51444625854492	-264.76129150390625	-0.0	-0.0	-0.0	-0.0	-0.0	-0.0	73047.6953125	-26718.263671875	4132.685546875
0.45200000000000007	-0.0	-0.0	-0.0	8.382135391235352	33.86590576171875	-260.29364013671875	8.64919376373291	-35.62900924682617	-265.6348876953125	-0.0	-0.0	-0.0	-0.0	-0.0	-0.0	73345.328125	-26678.8671875	3939.43115234375
0.45250000000000007	-0.0	-0.0	-0.0	8.18129825592041	34.05881118774414	-261.396728515625	8.711180686950684	-35.567108154296875	-265.63397216796875	-0.0	-0.0	-0.0	-0.0	-0.0	-0.0	73540.0078125	-26675.439453125	3942.47900390625
0.45300000000000007	-0.0	-0.0	-0.0	8.385787963867188	34.22152328491211	-264.3428649902344	8.365533828735352	-35.59364318847656	-266.7854919433594	-0.0	-0.0	-0.0	-0.0	-0.0	-0.0	73826.3125	-26903.822265625	3847.158203125
0.45350000000000007	-0.0	-0.0	-0.0	8.433135986328125	34.33083724975586	-264.53179931640625	8.258429527282715	-35.87699508666992	-268.2867126464844	-0.0	-0.0	-0.0	-0.0	-0.0	-0.0	74205.5625	-26856.74609375	3766.87841796875
0.45400000000000007	-0.0	-0.0	-0.0	8.154821395874023	34.92873764038086	-267.1492004394531	8.462530136108398	-36.123573303222656	-270.0640869140625	-0.0	-0.0	-0.0	-0.0	-0.0	-0.0	74992.5625	-27019.490234375	3784.861083984375
0.45450000000000007	-0.0	-0.0	-0.0	8.458806991577148	35.58333206176758	-269.6849670410156	8.107532501220703	-36.68819808959961	-272.643798828125	-0.0	-0.0	-0.0	-0.0	-0.0	-0.0	75475.7265625	-27387.447265625	3669.490478515625
0.45500000000000007	-0.0	-0.0	-0.0	8.521327018737793	35.71489715576172	-271.5165710449219	8.0534029006958	-36.7840690612793	-273.2187194824219	-0.0	-0.0	-0.0	-0.0	-0.0	-0.0	76087.1640625	-27650.76171875	3683.7529296875
0.45550000000000007	-0.0	-0.0	-0.0	8.742630004882812	35.76774597167969	-273.2564697265625	7.77949333190918	-37.03372573852539	-276.63458251953125	-0.0	-0.0	-0.0	-0.0	-0.0	-0.0	76763.40625	-27771.265625	3624.1865234375
0.45600000000000007	-0.0	-0.0	-0.0	8.966697692871094	36.30260848999024	-276.32965087890625	7.8879475593566895	-37.09510803222656	-278.1382751464844	-0.0	-0.0	-0.0	-0.0	-0.0	-0.0	77284.890625	-28055.75	3644.864501953125
0.4565000000000001	-0.0	-0.0	-0.0	8.911681175231934	35.999324798583984	-280.00341796875	8.311613082885742	-37.57795715332031	-280.12664794921875	-0.0	-0.0	-0.0	-0.0	-0.0	-0.0	78288.3984375	-28542.193359375	3660.857666015625
0.4570000000000001	-0.0	-0.0	-0.0	9.161211013793944	36.25856018066406	-281.8013610839844	8.912176132202148	-37.720245361328125	-282.9201354980469	-0.0	-0.0	-0.0	-0.0	-0.0	-0.0	79044.65625	-28700.498046875	3928.466552734375
0.4575000000000001	-0.0	-0.0	-0.0	10.285967826843262	36.45433807373047	-285.05157470703125	9.478121757507324	-37.56393432617188	-286.41192626953125	-0.0	-0.0	-0.0	-0.0	-0.0	-0.0	79627.6015625	-28994.892578125	4074.796142578125
0.4580000000000001	-0.0	-0.0	-0.0	11.142556190490724	36.75727081298828	-287.06378173828125	9.683813095092772	-37.951053619384766	-289.6059265136719	-0.0	-0.0	-0.0	-0.0	-0.0	-0.0	80742.609375	-29313.73828125	4040.717041015625
0.4585000000000001	-0.0	-0.0	-0.0	12.078839302062988	36.43730545043945	-290.62811279296875	10.167972564697266	-37.80168151855469	-291.8659973144531	-0.0	-0.0	-0.0	-0.0	-0.0	-0.0	81411.5390625	-29863.884765625	4328.580078125
0.4590000000000001	-0.0	-0.0	-0.0	12.676213264465332	36.49990081787109	-293.1064147949219	10.617754936218262	-38.1671028137207	-293.7449035644531	-0.0	-0.0	-0.0	-0.0	-0.0	-0.0	81931.546875	-30035.150390625	4484.29833984375
0.4595000000000001	-0.0	-0.0	-0.0	13.327533721923828	36.632598876953125	-297.2705383300781	11.394416809082031	-38.1883430480957	-296.817626953125	-0.0	-0.0	-0.0	-0.0	-0.0	-0.0	82888.625	-30376.61328125	4616.7666015625
0.4600000000000001	-0.0	-0.0	-0.0	14.425003051757812	36.48141098022461	-298.4057312011719	12.015006065368652	-38.27650451660156	-299.7257995605469	-0.0	-0.0	-0.0	-0.0	-0.0	-0.0	83844.5234375	-30905.18359375	4806.2998046875
0.4605000000000001	-0.0	-0.0	-0.0	15.235576629638672	36.535736083984375	-301.400634765625	12.297553062438965	-38.359222412109375	-302.037841796875	-0.0	-0.0	-0.0	-0.0	-0.0	-0.0	84655.1953125	-31317.98046875	4893.5693359375
0.4610000000000001	-0.0	-0.0	-0.0	16.14710235595703	36.783653259277344	-303.1361999511719	13.017982482910156	-38.54121780395508	-306.61773681640625	-0.0	-0.0	-0.0	-0.0	-0.0	-0.0	85506.2265625	-31506.09765625	5003.39453125
0.4615000000000001	-0.0	-0.0	-0.0	17.03190803527832	36.687156677246094	-304.1671142578125	13.816082000732422	-38.47039031982422	-307.1237487792969	-0.0	-0.0	-0.0	-0.0	-0.0	-0.0	86249.703125	-31985.4375	5422.64794921875
0.4620000000000001	-0.0	-0.0	-0.0	17.594709396362305	36.36520385742188	-306.37176513671875	14.707860946655272	-38.57364654541016	-310.96484375	-0.0	-0.0	-0.0	-0.0	-0.0	-0.0	86984.46875	-32094.60546875	5536.85693359375
0.4625000000000001	-0.0	-0.0	-0.0	18.59011650085449	36.0772819519043	-307.5383605957031	15.258255004882812	-38.62911605834961	-312.6009826660156	-0.0	-0.0	-0.0	-0.0	-0.0	-0.0	87899.2265625	-32431.0	5737.12939453125
0.4630000000000001	-0.0	-0.0	-0.0	19.73558235168457	36.098575592041016	-309.8212280273437	16.149831771850586	-38.94986724853516	-314.9523620605469	-0.0	-0.0	-0.0	-0.0	-0.0	-0.0	88592.84375	-32751.396484375	5974.9482421875
0.4635000000000001	-0.0	-0.0	-0.0	20.88827896118164	36.46083831787109	-310.7725830078125	17.447885513305664	-39.13078308105469	-318.903076171875	-0.0	-0.0	-0.0	-0.0	-0.0	-0.0	89470.3984375	-33138.2109375	6370.8291015625
0.4640000000000001	-0.0	-0.0	-0.0	22.047550201416016	36.47568130493164	-311.5544128417969	19.08094024658203	-39.47979736328125	-320.2831115722656	-0.0	-0.0	-0.0	-0.0	-0.0	-0.0	90348.734375	-33690.2109375	6877.52294921875
0.4645000000000001	-0.0	-0.0	-0.0	23.12102508544922	36.93376159667969	-314.13494873046875	20.6169490814209	-39.74475860595703	-323.64825439453125	-0.0	-0.0	-0.0	-0.0	-0.0	-0.0	91154.953125	-33948.32421875	7384.0576171875
0.4650000000000001	-0.0	-0.0	-0.0	24.372129440307617	36.93362045288086	-314.9964904785156	22.14935111999512	-40.00606918334961	-325.9960632324219	-0.0	-0.0	-0.0	-0.0	-0.0	-0.0	91627.7421875	-34393.99609375	7986.4462890625
0.4655000000000001	-0.0	-0.0	-0.0	25.609079360961918	36.85519409179688	-315.8307189941406	24.16120338439941	-40.35957717895508	-328.2025146484375	-0.0	-0.0	-0.0	-0.0	-0.0	-0.0	92800.3203125	-34742.85546875	8374.4990234375
0.4660000000000001	-0.0	-0.0	-0.0	26.166587829589844	37.13401412963867	-317.2660827636719	25.30777740478516	-40.77626800537109	-330.4095153808594	-0.0	-0.0	-0.0	-0.0	-0.0	-0.0	93749.09375	-35279.3671875	8999.1318359375
0.4665000000000001	-0.0	-0.0	-0.0	26.04421615600586	37.801788330078125	-318.325927734375	27.03127670288086	-41.51422500610352	-336.02020263671875	-0.0	-0.0	-0.0	-0.0	-0.0	-0.0	94453.9375	-35182.78515625	9491.625
0.4670000000000001	-0.0	-0.0	-0.0	26.171783447265625	38.40230941772461	-320.00103759765625	28.510467529296875	-41.74483108520508	-337.978759765625	-0.0	-0.0	-0.0	-0.0	-0.0	-0.0	95217.59375	-35993.84765625	9967.220703125
0.4675000000000001	-0.0	-0.0	-0.0	25.269813537597656	39.05372619628906	-320.4841003417969	30.401782989501957	-42.74504470825195	-340.4123229980469	-0.0	-0.0	-0.0	-0.0	-0.0	-0.0	96177.34375	-36354.0625	10481.279296875
